<svg width="117" height="101" viewBox="0 0 117 101" fill="none" xmlns="http://www.w3.org/2000/svg">
<path fill-rule="evenodd" clip-rule="evenodd" d="M65.7015 32.3323L58.9586 32.1719H15.2819L8.81789 32.3094C5.95343 32.2865 2.53129 34.8071 1.11173 37.4195C-0.409219 40.1922 0.0724157 44.9586 0.0724157 48.7167V85.4042C0.0470665 89.2081 2.15105 91.8892 4.76202 93.3787C6.18157 94.1807 7.72788 94.8224 9.93326 94.8224H30.2126C30.2126 90.9268 30.1112 86.9395 30.1873 83.0897C30.238 81.394 30.6436 81.5773 32.8236 79.6066C33.9389 78.5983 35.3078 77.59 36.1443 76.4901H33.6094V63.4971C25.8779 58.8224 30.2126 50.7333 37.2597 50.7333C45.0672 50.7333 47.7289 60.1057 40.6311 63.4971V72.4112L49.5794 64.4596C52.6213 61.7097 55.4351 59.1661 58.4516 56.4392C59.1868 55.7747 60.15 55.2934 60.3528 54.3081C60.6824 52.5665 58.7812 46.471 63.6482 37.6945C64.7382 35.7237 65.7775 34.5092 67.1211 32.676C66.4366 32.401 66.462 32.4927 65.7015 32.3323Z" fill="#4BBC92"/>
<path fill-rule="evenodd" clip-rule="evenodd" d="M67.7677 49.8519C67.7677 53.9445 68.6395 55.6556 68.6395 56.7886C68.6395 57.7828 37.5632 83.9804 37.5632 85.2983V100.467H54.3834C54.4347 98.1543 55.2295 95.9115 55.2295 93.2755C55.9731 93.2755 63.1524 92.4894 63.3576 92.3738C63.9473 92.05 63.9217 90.2696 64.0499 88.8823C64.1781 87.4025 64.3576 86.4545 64.3576 85.044L72.6138 84.0266C72.6138 81.7606 73.6907 79.0322 73.7676 76.8356L81.588 75.9338C82.2547 75.7026 85.5879 72.5349 85.9982 71.9568C95.5621 73.9453 101.947 71.9799 109.562 66.2225C120.382 58.0603 118.305 42.314 110.305 35.1461C102.818 28.4176 91.0494 26.036 81.3572 30.4986C79.2547 31.4466 76.1778 33.4582 74.7676 35.0999L72.2036 37.9208C69.7164 40.9961 67.7677 45.6205 67.7677 49.8519ZM92.4852 41.8516C97.4339 41.8516 101.459 45.4818 101.459 49.9444C101.459 54.4301 97.4339 58.0372 92.4852 58.0372C87.5366 58.0372 83.511 54.4301 83.511 49.9444C83.511 45.4818 87.5366 41.8516 92.4852 41.8516Z" fill="#4BBC92"/>
<path fill-rule="evenodd" clip-rule="evenodd" d="M8.62336 32.1482L15.1309 32.0064C15.1309 24.9632 15.6413 19.3144 20.3369 13.9729C32.816 -0.302713 54.0228 6.83508 58.0294 21.4415C58.9481 24.845 59.1012 27.6339 59.1012 32.0064L65.8895 32.1719C65.8895 23.356 65.8895 20.8743 62.036 13.8074C55.8602 2.48622 39.1193 -4.03705 24.6752 2.76985C17.938 5.93694 12.4768 12.0348 10.129 18.6999C8.49576 23.3796 8.62336 26.1686 8.62336 32.1482Z" fill="#838383"/>
</svg>
